<svg height="1000" viewBox="0 0 1000 1000" width="1000" xmlns="http://www.w3.org/2000/svg"><path d="m167 950c64.617316 0 117-52.382684 117-117s-52.382684-117-117-117-117 52.382684-117 117 52.382684 117 117 117zm333 0c64.617316 0 117-52.382684 117-117s-52.382684-117-117-117-117 52.382684-117 117 52.382684 117 117 117zm333 0c64.617316 0 117-52.382684 117-117s-52.382684-117-117-117-117 52.382684-117 117 52.382684 117 117 117zm-666-333c64.617316 0 117-52.382684 117-117s-52.382684-117-117-117-117 52.382684-117 117 52.382684 117 117 117zm333 0c64.617316 0 117-52.382684 117-117s-52.382684-117-117-117-117 52.382684-117 117 52.382684 117 117 117zm333 0c64.617316 0 117-52.382684 117-117s-52.382684-117-117-117-117 52.382684-117 117 52.382684 117 117 117zm-666-333c64.617316 0 117-52.382684 117-117s-52.382684-117-117-117-117 52.382684-117 117 52.382684 117 117 117zm333 0c64.617316 0 117-52.382684 117-117s-52.382684-117-117-117-117 52.382684-117 117 52.382684 117 117 117zm333 0c64.617316 0 117-52.382684 117-117s-52.382684-117-117-117-117 52.382684-117 117 52.382684 117 117 117z" fill-rule="evenodd"/></svg>