<svg height="1000" viewBox="0 0 1000 1000" width="1000" xmlns="http://www.w3.org/2000/svg"><path d="m500 725c-124.0875 0-225-100.9125-225-225s100.9125-225 225-225 225 100.9125 225 225-100.9125 225-225 225zm0-337.5c-62.04375 0-112.5 50.45625-112.5 112.5s50.45625 112.5 112.5 112.5 112.5-50.45625 112.5-112.5-50.45625-112.5-112.5-112.5zm0 562.5c-248.11875 0-450-201.88125-450-450s201.88125-450 450-450 450 201.88125 450 450c0 30.54375-3.09375 61.0875-9.16875 90.675-19.35 92.25-109.06875 151.03125-199.96875 131.90625-44.1-9.16875-82.0125-34.9875-106.70625-72.73125-24.69375-37.6875-33.24375-82.8-24.01875-126.9 6.24375-30.43125 36.1125-49.95 66.54375-43.59375s49.95 36.16875 43.5375 66.54375c-3.0375 14.7375-.225 29.7 8.04375 42.3s20.86875 21.20625 35.55 24.3c30.2625 5.9625 60.1875-13.21875 66.6-43.59375 4.78125-23.0625 7.0875-45.9 7.0875-68.90625 0-186.13125-151.36875-337.5-337.5-337.5s-337.5 151.36875-337.5 337.5 151.36875 337.5 337.5 337.5c39.825 0 78.91875-6.8625 116.1-20.475 29.19375-10.575 61.425 4.275 72.1125 33.58125 10.63125 29.19375-4.33125 61.48125-33.58125 72.1125-49.5 18.1125-101.5875 27.28125-154.63125 27.28125z"/></svg>