<svg height="1000" viewBox="0 0 1000 1000" width="1000" xmlns="http://www.w3.org/2000/svg"><path d="m500 825.857143c-62.142857 0-120-16.071429-174.642857-43.928572-103.928572-52.5-187.5-129.642857-251.7857144-227.142857-6.4285715-9.642857-11.7857143-20.357143-17.1428572-31.071428-7.5-15-7.5-31.071429 0-46.071429 17.1428572-35.357143 40.7142857-66.428571 65.3571426-96.428571 57.857143-67.5 124.285715-124.285715 203.571429-163.928572 55.714286-27.857143 114.642857-45 177.857143-43.928571 55.714285 1.071428 109.285714 15 158.571428 38.571428 107.142857 51.428572 191.785715 128.571429 258.214286 226.071429 8.571429 11.785714 15 25.714286 21.428571 38.571429 8.571429 16.071428 7.5 33.214285 0 49.285714-15 33.214286-35.357142 62.142857-58.928571 88.928571-57.857143 68.571429-125.357143 124.285715-205.714286 165-54.642857 28.928572-113.571428 46.071429-176.785714 46.071429zm0-90c130.714286 1.071428 240-108.214286 235.714286-243.214286-3.214286-126.428571-109.285715-232.5-243.214286-228.214286-127.5 4.285715-231.428571 110.357143-228.214286 243.214286 3.214286 124.285714 110.357143 229.285714 235.714286 228.214286zm-132.857143-235.714286c1.071429-76.071428 60-132.857143 136.071429-132.857143 71.785714 1.071429 129.642857 62.142857 127.5 136.071429-1.071429 71.785714-63.214286 131.785714-139.285715 128.571428-66.428571-2.142857-124.285714-62.142857-124.285714-131.785714z"/></svg>