<svg height="1000" viewBox="0 0 1000 1000" width="1000" xmlns="http://www.w3.org/2000/svg"><path d="m517.445929 607.663956h-85.402672c-39.5523 0-68.903447-36.672326-60.233631-75.264634l20.618218-91.790434c6.327969-28.178563 31.350852-48.205507 60.233631-48.205507h85.402672c39.552299 0 68.900126 36.675648 60.233631 75.264635l-20.618218 91.790433c-6.327969 28.178564-31.350853 48.205507-60.233631 48.205507m432.554071-276.995645v-9.400605c0-34.094634-27.640437-61.735071-61.73507-61.735071h-29.895918c-39.5523 0-68.903448-36.672326-60.233631-75.264634l9.643094-42.930538c7.470658-33.267513-13.439876-66.2925373-46.707389-73.763195l-9.171403-2.0594966c-33.264192-7.4739795-66.289216 13.4365542-73.763195 46.7040676l-22.259172 99.108289c-6.331291 28.181886-31.354174 48.205507-60.236953 48.205507h-85.39935c-39.5523 0-68.903447-36.672326-60.233631-75.264634l9.643094-42.930538c7.470658-33.267513-13.439876-66.2925373-46.707389-73.763195l-9.168081-2.0594966c-33.267514-7.4739795-66.292538 13.4365542-73.763195 46.7040676l-22.262494 99.108289c-6.331291 28.181886-31.354174 48.205507-60.236953 48.205507h-102.758913c-34.094634 0-61.7350705 27.640437-61.7350705 61.735071v9.400605c0 34.094633 27.6404365 61.73507 61.7350705 61.73507h45.179375c39.555622 0 68.903448 36.675648 60.236953 75.264635l-20.618218 91.790433c-6.331291 28.181885-31.354174 48.205507-60.233631 48.205507h-57.579538c-34.097955 0-61.738392 27.640437-61.738392 61.73507v9.400606c0 34.094633 27.640437 61.73507 61.738392 61.73507 39.5523 0 68.900126 36.672326 60.233631 75.264634l-9.643094 42.930538c-7.47398 33.267513 13.436554 66.292537 46.704067 73.766517l9.171403 2.059497c33.267514 7.470657 66.292538-13.439876 73.763195-46.704068l22.262494-99.111611c6.331291-28.181886 31.350852-48.205507 60.233631-48.205507h85.402672c39.552299 0 68.903447 36.672326 60.233631 75.264634l-9.643094 42.930538c-7.470658 33.267513 13.439876 66.292537 46.707389 73.766517l9.171403 2.059497c33.264191 7.470657 66.289215-13.439876 73.763195-46.70739l22.259172-99.108289c6.331291-28.178564 31.354174-48.205507 60.236952-48.205507h132.65151c34.097955 0 61.735071-27.640437 61.735071-61.73507v-9.400606c0-34.094633-27.637116-61.73507-61.735071-61.73507h-75.075293c-39.5523 0-68.900126-36.672326-60.233631-75.264634l20.618218-91.790434c6.327969-28.178563 31.350852-48.205507 60.233631-48.205507h87.475456c34.094633 0 61.73507-27.640437 61.73507-61.73507"/></svg>