<svg height="1000" viewBox="0 0 1000 1000" width="1000" xmlns="http://www.w3.org/2000/svg"><path d="m181.794195 181.794195c-175.72559342 175.725594-175.72559342 460.686016 0 636.41161 175.725594 175.725593 460.686016 175.725593 636.41161 0 175.725593-175.725594 175.725593-460.686016 0-636.41161-175.725594-175.72559342-460.686016-175.72559342-636.41161 0zm338.249599 33.531809c41.434035 0 74.581264 34.183079 74.581264 75.617114s-34.18308 75.617114-74.581264 75.617114c-41.434035 0-75.617114-34.183079-75.617114-76.652965 0-41.434035 34.183079-74.581263 75.617114-74.581263zm106.692641 506.531081c-2.071702 6.215105-6.215105 13.466061-10.358509 17.609465-26.932123 27.967973-60.079351 44.541588-99.441685 44.541588-18.645315 0-36.25478 0-54.900096-3.107553-30.039676-4.143404-68.366158-41.434035-63.186904-80.796369 4.143403-26.932123 8.286807-53.864246 12.430211-80.796369 8.286807-46.613289 16.573614-94.26243 24.860421-140.87572 0-3.107552 1.035851-6.215105 1.035851-9.322657 0-19.681167-6.215106-26.932123-25.896272-29.003825-8.286808-1.035851-16.573615-2.071702-24.860422-4.143404-9.322658-3.107552-14.501912-11.394359-13.466061-18.645316 1.035851-8.286807 6.215105-13.466061 16.573614-15.537763 5.179254-1.035851 11.39436-1.035851 17.609465-1.035851h69.402009 73.545413c17.609465 0 27.967973 8.286807 27.967973 25.896272 0 14.501913-2.071701 29.003825-5.179254 43.505737-9.322658 53.864246-19.681167 106.692641-29.003825 160.556887-3.107552 17.609465-7.250956 35.21893-9.322658 52.828395-1.03585 8.286807 0 17.609465 2.071702 25.896272 3.107553 11.39436 11.39436 17.609465 22.78872 16.573614 9.322658-1.035851 18.645315-4.143403 27.967973-8.286807 7.250957-3.107552 13.466062-8.286807 20.717018-10.358509 12.430211-4.143403 21.752869 3.107553 18.645316 14.501913z"/></svg>