<svg height="1000" viewBox="0 0 1000 1000" width="1000" xmlns="http://www.w3.org/2000/svg"><path d="m730.224742 115.205269c-71.203528-5.933627-137.660155 17.800882-185.129174 61.709725-24.921235 22.547784-62.89645 22.547784-89.004411 0-48.655744-43.908843-113.925645-68.830078-185.129174-61.709725-115.112371 10.680529-207.6769578 102.058391-219.5442126 217.170762-7.1203528 66.456627 13.0539802 128.166351 49.8424696 175.63537 37.975216 49.84247 174.448645 192.249527 327.536231 347.710565 39.161941 39.16194 102.058391 39.16194 141.220332 0 153.087586-155.461038 290.747741-297.868095 328.722957-347.710565 36.788489-47.469019 56.962822-109.178743 49.84247-175.63537-10.68053-113.925645-104.431842-206.490233-218.357488-217.170762z"/></svg>