<svg height="1000" viewBox="0 0 1000 1000" width="1000" xmlns="http://www.w3.org/2000/svg"><path d="m860 410c0 183.188976-137.65748 334.665354-315 356.811024v93.188976h45c24.80315 0 45 20.19685 45 45s-20.19685 45-45 45h-180c-24.80315 0-45-20.19685-45-45s20.19685-45 45-45h45v-93.188976c-177.34252-22.14567-315-173.622048-315-356.811024 0-24.80315 20.19685-45 45-45s45 20.19685 45 45c0 148.818898 121.181102 270 270 270s270-121.181102 270-270c0-24.80315 20.19685-45 45-45s45 20.19685 45 45zm-360 180c-99.389764 0-180-80.610236-180-180v-180c0-99.389764 80.610236-180 180-180s180 80.610236 180 180v180c0 99.389764-80.610236 180-180 180z"/></svg>