<svg height="1000" viewBox="0 0 1000 1000" width="1000" xmlns="http://www.w3.org/2000/svg"><path d="m889.571429 273.714286c39.857142 69.428571 60.428571 144 60.428571 226.285714s-20.571429 156.857143-60.428571 226.285714c-39.857143 69.428572-95.142858 123.428572-163.285715 163.285715-69.428571 39.857142-144 60.428571-226.285714 60.428571s-156.857143-20.571429-226.285714-60.428571c-69.428572-39.857143-123.428572-95.142858-163.285715-163.285715-39.8571424-68.142857-60.428571-144-60.428571-226.285714s20.5714286-156.857143 60.428571-226.285714c39.857143-69.428572 95.142858-123.428572 163.285715-163.285715 69.428571-39.8571424 144-60.428571 226.285714-60.428571s156.857143 20.5714286 226.285714 60.428571c68.142857 39.857143 123.428572 95.142858 163.285715 163.285715zm-244.6932 511.285714-65.202952-277.638376c46.273062-27.343174 77.822878-77.822879 77.822878-134.612547 0-86.236162-71.512915-157.749077-157.749078-157.749077-86.236162 0-157.749077 71.512915-157.749077 157.749077 0 56.789668 31.549815 107.269373 77.822878 134.612547l-65.202952 277.638376h132.509225 25.239853z"/></svg>