<svg height="1000" viewBox="0 0 1000 1000" width="1000" xmlns="http://www.w3.org/2000/svg"><path d="m538.623431 93.4523407 106.317278 213.8853473c6.253958 12.507915 18.761873 21.263455 32.520579 23.765038l235.148803 35.022163c36.272954 5.003166 50.03166 48.780868 23.765039 75.04749l-170.107645 165.104478c-10.006332 10.006332-15.009498 25.01583-12.507915 38.774537l40.025328 233.898011c6.253958 36.272954-31.269787 62.539575-63.790367 46.279286l-210.132972-111.320444c-12.507915-6.253958-27.517413-6.253958-41.27612 0l-210.132972 111.320444c-32.52058 16.260289-70.044325-10.006332-63.790367-46.279286l41.27612-233.898011c2.501583-13.758707-2.501583-28.768205-12.507916-38.774537l-170.107644-166.35527c-26.2666216-25.01583-11.2571236-68.793532 23.7650385-75.04749l235.1488025-33.771371c13.758707-2.501583 26.266622-11.257123 32.520579-23.765038l105.066487-213.8853473c16.260289-31.2697876 63.790366-31.2697876 78.799864 0z"/></svg>